<svg width="20" height="20" viewBox="0 0 20 20" fill="none" xmlns="http://www.w3.org/2000/svg">
<g clip-path="url(#clip0_1472_3119)">
<path d="M6.66699 4.99984V4.1665C6.66699 2.78579 7.78628 1.6665 9.16699 1.6665H10.8337C12.2144 1.6665 13.3337 2.78579 13.3337 4.1665V4.99984M1.66699 8.62274C1.66699 8.62274 4.26536 10.3535 8.31505 10.7589M18.3337 8.62274C18.3337 8.62274 15.7353 10.3535 11.6856 10.7589M5.00033 18.3332H15.0003C16.8413 18.3332 18.3337 16.8408 18.3337 14.9998V8.33317C18.3337 6.49222 16.8413 4.99984 15.0003 4.99984H5.00033C3.15938 4.99984 1.66699 6.49222 1.66699 8.33317V14.9998C1.66699 16.8408 3.15938 18.3332 5.00033 18.3332Z" stroke="#7152F3" stroke-width="1.5" stroke-linecap="round"/>
<path d="M11.6663 10.1331V10.9665C11.6663 10.9748 11.6663 10.9748 11.6663 10.9831C11.6663 11.8915 11.658 12.6331 9.99967 12.6331C8.34967 12.6331 8.33301 11.8998 8.33301 10.9915V10.1331C8.33301 9.2998 8.33301 9.2998 9.16634 9.2998H10.833C11.6663 9.2998 11.6663 9.2998 11.6663 10.1331Z" stroke="#7152F3" stroke-width="1.5" stroke-miterlimit="10" stroke-linecap="round" stroke-linejoin="round"/>
</g>
<defs>
<clipPath id="clip0_1472_3119">
<rect width="20" height="20" fill="white"/>
</clipPath>
</defs>
</svg>
