<svg width="24" height="24" viewBox="0 0 24 24" fill="none" xmlns="http://www.w3.org/2000/svg">
<path d="M12 2.25C14.3858 2.25 16.3601 4.00899 16.6982 6.30078C18.9906 6.63847 20.75 8.61385 20.75 11V17C20.75 19.6234 18.6234 21.75 16 21.75H8C5.37665 21.75 3.25 19.6234 3.25 17V11C3.25 8.61418 5.00892 6.63887 7.30078 6.30078C7.63887 4.00892 9.61418 2.25 12 2.25ZM12 11.25C10.4812 11.25 9.25 12.4812 9.25 14C9.25 15.5188 10.4812 16.75 12 16.75C13.5188 16.75 14.75 15.5188 14.75 14C14.75 12.4812 13.5188 11.25 12 11.25ZM12 3.75C10.4633 3.75 9.17655 4.81675 8.83789 6.25H15.1621C14.8235 4.81675 13.5367 3.75 12 3.75Z" fill="#7152F3"/>
</svg>
