<svg width="20" height="20" viewBox="0 0 20 20" fill="none" xmlns="http://www.w3.org/2000/svg">
<ellipse cx="10" cy="13.7498" rx="5" ry="2.08333" stroke="#7152F3" stroke-width="1.5" stroke-linejoin="round"/>
<ellipse cx="10" cy="6.6665" rx="2.5" ry="2.5" stroke="#7152F3" stroke-width="1.5" stroke-linejoin="round"/>
<path d="M5.62695 10.9219C4.67273 11.3889 3.95766 12.0051 3.59668 12.707C3.44188 12.752 3.29746 12.799 3.16602 12.8516C2.84158 12.9813 2.62882 13.117 2.50977 13.2295C2.45719 13.2792 2.43245 13.3138 2.42188 13.333C2.43219 13.352 2.45638 13.387 2.50977 13.4375C2.6288 13.55 2.84153 13.6856 3.16602 13.8154C3.22099 13.8374 3.27869 13.8572 3.33789 13.8779C3.37582 14.5154 3.69707 15.1115 4.23242 15.6299C3.63004 15.538 3.07784 15.3967 2.6084 15.209C2.17938 15.0374 1.78207 14.8134 1.47949 14.5273C1.2133 14.2756 0.98227 13.9354 0.928711 13.5176L0.916992 13.334L0.928711 13.1494C0.982318 12.7317 1.21334 12.3914 1.47949 12.1396C1.78201 11.8537 2.17951 11.6306 2.6084 11.459C3.42227 11.1335 4.48387 10.9428 5.62695 10.9219Z" fill="#7152F3"/>
<path d="M14.373 10.9219C15.5163 10.9427 16.5776 11.1334 17.3916 11.459C17.8208 11.6307 18.2188 11.8535 18.5215 12.1396C18.8258 12.4274 19.083 12.8312 19.083 13.334C19.0829 13.8365 18.8256 14.2397 18.5215 14.5273C18.2188 14.8135 17.8208 15.0373 17.3916 15.209C16.9221 15.3968 16.3699 15.538 15.7676 15.6299C16.303 15.1115 16.6242 14.5155 16.6621 13.8779C16.7213 13.8572 16.779 13.8374 16.834 13.8154C17.1584 13.6857 17.3712 13.55 17.4902 13.4375C17.5432 13.3874 17.5667 13.3521 17.5771 13.333C17.5664 13.3137 17.5424 13.2788 17.4902 13.2295C17.3712 13.117 17.1584 12.9813 16.834 12.8516C16.7025 12.799 16.5581 12.752 16.4033 12.707C16.0423 12.0051 15.3273 11.3889 14.373 10.9219Z" fill="#7152F3"/>
<path d="M14.167 5.08301C15.5014 5.08318 16.5828 6.16557 16.583 7.5C16.5828 8.83443 15.5014 9.91584 14.167 9.91602C13.7289 9.91596 13.3192 9.79758 12.9648 9.59375C13.3188 9.23525 13.6084 8.81312 13.8145 8.3457C13.923 8.39099 14.042 8.41597 14.167 8.41602C14.673 8.41584 15.0828 8.006 15.083 7.5C15.0828 6.994 14.673 6.58318 14.167 6.58301H14.165C14.1548 6.06119 14.0485 5.56334 13.8633 5.10547C13.9629 5.09295 14.064 5.08302 14.167 5.08301Z" fill="#7152F3"/>
<path d="M5.83398 5.08301C5.93661 5.08303 6.03746 5.09204 6.13672 5.10449C5.95131 5.56257 5.84525 6.06091 5.83496 6.58301H5.83398C5.32783 6.58301 4.91717 6.99389 4.91699 7.5C4.91717 8.00611 5.32783 8.41602 5.83398 8.41602C5.95896 8.41593 6.07801 8.39105 6.18652 8.3457C6.39255 8.81296 6.68129 9.23534 7.03516 9.59375C6.68107 9.7974 6.27182 9.9159 5.83398 9.91602C4.4994 9.91602 3.41717 8.83454 3.41699 7.5C3.41717 6.16546 4.4994 5.08301 5.83398 5.08301Z" fill="#7152F3"/>
</svg>
