<svg width="24" height="24" viewBox="0 0 24 24" fill="none" xmlns="http://www.w3.org/2000/svg">
<ellipse cx="12" cy="16.5" rx="6" ry="2.5" stroke="currentColor" stroke-width="1.5" stroke-linejoin="round"/>
<circle cx="12" cy="8" r="3" stroke="currentColor" stroke-width="1.5" stroke-linejoin="round"/>
<path d="M6.44824 13.2617C5.53677 13.7561 4.83404 14.3707 4.41992 15.0605C4.17335 15.1264 3.94663 15.2008 3.74316 15.2822C3.34315 15.4422 3.06939 15.6142 2.9082 15.7666C2.75146 15.9149 2.75 15.9941 2.75 16C2.75 16.0035 2.74886 16.0826 2.9082 16.2334C3.06936 16.3858 3.34309 16.5577 3.74316 16.7178C3.83148 16.7531 3.9247 16.7858 4.02148 16.8184C4.09993 17.4497 4.40927 18.0443 4.90332 18.5771C4.26774 18.468 3.6857 18.3104 3.18555 18.1104C2.68108 17.9085 2.22267 17.6492 1.87793 17.3232C1.53154 16.9956 1.25 16.5488 1.25 16C1.25008 15.4513 1.53154 15.0043 1.87793 14.6768C2.22267 14.3508 2.68111 14.0915 3.18555 13.8896C4.06941 13.5361 5.20855 13.3131 6.44824 13.2617Z" fill="#16151C"/>
<path d="M17.5516 13.2617C18.7913 13.3131 19.9305 13.5361 20.8143 13.8896C21.3187 14.0914 21.7772 14.3508 22.1219 14.6768C22.4683 15.0043 22.7498 15.4513 22.7499 16C22.7499 16.5488 22.4684 16.9956 22.1219 17.3232C21.7772 17.6492 21.3188 17.9085 20.8143 18.1104C20.3139 18.3105 19.7316 18.468 19.0956 18.5771C19.5899 18.0442 19.8989 17.4499 19.9774 16.8184C20.0745 16.7857 20.1681 16.7532 20.2567 16.7178C20.6568 16.5577 20.9305 16.3858 21.0917 16.2334C21.2511 16.0826 21.2499 16.0035 21.2499 16C21.2499 15.9941 21.2484 15.9149 21.0917 15.7666C20.9305 15.6142 20.6567 15.4422 20.2567 15.2822C20.053 15.2008 19.8259 15.1265 19.579 15.0605C19.1648 14.3708 18.4629 13.756 17.5516 13.2617Z" fill="#16151C"/>
<path d="M16.9997 6.25C18.5185 6.25 19.7497 7.48122 19.7497 9C19.7497 10.5188 18.5185 11.75 16.9997 11.75C16.5141 11.7499 16.0587 11.6223 15.6628 11.4014C16.0058 11.0321 16.2937 10.6114 16.5134 10.1514C16.6629 10.2146 16.8271 10.25 16.9997 10.25C17.6901 10.25 18.2497 9.69036 18.2497 9C18.2497 8.30964 17.6901 7.75 16.9997 7.75C16.9977 7.75 16.9958 7.74999 16.9938 7.75C16.9683 7.23137 16.8629 6.73384 16.6911 6.26855C16.7925 6.25722 16.8953 6.25001 16.9997 6.25Z" fill="#16151C"/>
<path d="M7 6.25C7.10405 6.25 7.20657 6.2573 7.30762 6.26855C7.13591 6.73372 7.03139 7.23152 7.00586 7.75C7.00391 7.74999 7.00195 7.75 7 7.75C6.30964 7.75 5.75 8.30964 5.75 9C5.75 9.69036 6.30964 10.25 7 10.25C7.17225 10.25 7.33604 10.2144 7.48535 10.1514C7.70493 10.6113 7.99302 11.0321 8.33594 11.4014C7.94011 11.622 7.48536 11.75 7 11.75C5.48122 11.75 4.25 10.5188 4.25 9C4.25 7.48122 5.48122 6.25 7 6.25Z" fill="#16151C"/>
</svg>
