<svg width="24" height="24" viewBox="0 0 24 24" fill="none" xmlns="http://www.w3.org/2000/svg">
<path d="M12 12.25C13.748 12.25 15.3677 12.6028 16.5781 13.208C17.7436 13.7908 18.75 14.7345 18.75 16C18.75 17.2655 17.7436 18.2092 16.5781 18.792C15.3677 19.3972 13.748 19.75 12 19.75C10.252 19.75 8.63225 19.3972 7.42188 18.792C6.25641 18.2092 5.25 17.2655 5.25 16C5.25 14.7345 6.25641 13.7908 7.42188 13.208C8.63225 12.6028 10.252 12.25 12 12.25ZM6.38184 13.0195C5.21104 13.8133 4.50005 14.8567 4.5 16C4.5 16.6482 4.72846 17.2645 5.13965 17.8213C3.29951 17.4523 2 16.552 2 15.5C2.00011 14.224 3.91224 13.1718 6.38184 13.0195ZM17.6182 13.0195C20.0878 13.1718 21.9999 14.224 22 15.5C22 16.552 20.7005 17.4523 18.8604 17.8213C19.2715 17.2645 19.5 16.6482 19.5 16C19.5 14.8566 18.789 13.8133 17.6182 13.0195ZM12 4.25C14.0711 4.25 15.75 5.92893 15.75 8C15.75 10.0711 14.0711 11.75 12 11.75C9.92893 11.75 8.25 10.0711 8.25 8C8.25 5.92893 9.92893 4.25 12 4.25ZM7 7C7.20601 7 7.40479 7.03102 7.5918 7.08887C7.53133 7.38303 7.5 7.68794 7.5 8C7.5 8.94022 7.78815 9.81324 8.28125 10.5352C7.93419 10.8251 7.48763 11 7 11C5.89543 11 5 10.1046 5 9C5 7.89543 5.89543 7 7 7ZM17 7C18.1046 7.00002 19 7.89544 19 9C19 10.1046 18.1046 11 17 11C16.5124 11 16.0658 10.8251 15.7188 10.5352C16.2118 9.81324 16.5 8.94022 16.5 8C16.5 7.68794 16.4687 7.38303 16.4082 7.08887C16.5952 7.03103 16.794 7 17 7Z" fill="#7152F3"/>
</svg>
